<?xml version="1.0" encoding="UTF-8" standalone="no"?>
<!-- Created with Inkscape (http://www.inkscape.org/) -->

<svg
   version="1.1"
   id="svg984"
   width="600"
   height="600"
   viewBox="0 0 600 600"
   xmlns:xlink="http://www.w3.org/1999/xlink"
   xmlns="http://www.w3.org/2000/svg"
   xmlns:svg="http://www.w3.org/2000/svg">
  <defs
     id="defs988" />
  <g
     id="g990"
     style="display:none">
    <image
       width="600"
       height="600"
       preserveAspectRatio="none"
       xlink:href="../../../Desktop/triaging/logo.png"
       id="image992"
       style="display:none" />
  </g>
  <g
     id="layer1"
     style="display:inline">
    <path
       style="fill:#00ffff;stroke:#006663;stroke-width:0.816327"
       d="m 361.20924,238.44495 c -19.46416,-6.85472 -33.07752,-23.09529 -39.89828,-47.59814 -6.67647,-23.98451 -2.65056,-58.70964 9.72801,-83.90803 3.91684,-7.973299 11.01621,-18.22727 16.58732,-23.957884 9.42333,-9.693118 17.9735,-15.201242 30.22752,-19.472954 6.45701,-2.250891 7.69055,-2.420702 14.79925,-2.037283 25.16794,1.35747 46.01113,23.045327 52.32716,54.447711 0.40637,2.02041 0.9513,10.65306 1.21096,19.18367 0.63225,20.77076 -1.34161,33.29522 -7.89201,50.07598 -9.43698,24.17556 -28.19453,44.62648 -47.68693,51.99193 -2.24489,0.84826 -5,2.01345 -6.12244,2.58931 -1.22962,0.63083 -4.96115,1.03587 -9.38776,1.01898 -5.92337,-0.0226 -8.61528,-0.47471 -13.8928,-2.33329 z"
       id="path1268" />
    <path
       style="fill:#00ffff;stroke:#006663;stroke-width:0.816327"
       d="m 229.38776,241.04609 c -6.60952,-0.75247 -20.39788,-7.28795 -28.9796,-13.73589 -5.54766,-4.16828 -14.04589,-12.55061 -16.92883,-16.69796 -0.78025,-1.12244 -2.58254,-3.67808 -4.0051,-5.6792 -1.42256,-2.00112 -4.34855,-7.14398 -6.5022,-11.42857 -18.12509,-36.05911 -18.25412,-81.47445 -0.30294,-106.630772 15.93871,-22.336103 38.42642,-29.169562 60.8003,-18.475709 12.31895,5.887987 22.46021,14.450853 32.12065,27.121369 6.07738,7.971022 13.47963,23.735002 16.76067,35.693902 0.89137,3.24892 1.81669,6.22427 2.05625,6.61189 1.14194,1.8477 3.026,21.3228 3.01395,31.15444 -0.0162,13.22726 -1.49212,22.79724 -4.97361,32.24947 -8.40212,22.81168 -23.85968,37.09491 -42.85546,39.5997 -3.14286,0.41442 -6.08164,0.70604 -6.53062,0.64805 -0.44898,-0.058 -2.10204,-0.25181 -3.67346,-0.43072 z"
       id="path1307" />
    <path
       style="fill:#00ffff;stroke:#006663;stroke-width:0.816327"
       d="m 130.66496,371.74682 c -26.96834,-7.01831 -49.420784,-27.39875 -62.40365,-56.64478 -9.712363,-21.87868 -11.4935,-50.23492 -4.481165,-71.34149 2.671298,-8.0404 3.946277,-10.07647 10.505569,-16.7768 5.935093,-6.06271 13.297306,-10.04338 22.550029,-12.19255 9.171627,-2.13033 10.733347,-2.13929 19.430147,-0.11146 11.5226,2.68672 26.74926,11.78457 37.43609,22.36787 21.50595,21.2976 34.15486,52.12735 33.02915,80.50341 -0.73026,18.40817 -5.27522,31.24797 -14.58302,41.19802 -7.9561,8.50512 -12.7634,11.27201 -24.18753,13.92145 -6.70257,1.55443 -8.04987,1.48248 -17.29562,-0.92367 z"
       id="path1346" />
    <path
       style="fill:#00ffff;stroke:#006663;stroke-width:0.816327"
       d="m 410.61224,531.51812 c -7.94414,-2.27454 -15.52466,-5.09313 -27.7551,-10.31992 -3.81632,-1.63095 -8.59183,-3.53818 -10.61224,-4.23829 -2.02041,-0.70011 -4.04082,-1.54976 -4.4898,-1.88812 -0.44898,-0.33835 -3.20408,-1.358 -6.12245,-2.26588 -2.91836,-0.90788 -6.61241,-2.2072 -8.20899,-2.88737 -1.59657,-0.68018 -6.18841,-1.84758 -10.20408,-2.59424 -4.01567,-0.74665 -8.95427,-1.66797 -10.97468,-2.04736 -4.88009,-0.9164 -15.46553,-0.91161 -22.04082,0.01 -14.12062,1.97913 -22.3345,3.46314 -25.50305,4.60764 -1.9121,0.69066 -5.8643,1.93259 -8.78266,2.75985 -2.91837,0.82725 -8.79592,2.83878 -13.06123,4.47006 -4.2653,1.63127 -9.77551,3.68731 -12.2449,4.56895 -2.46938,0.88164 -5.59183,2.10332 -6.93877,2.71483 -1.34694,0.61151 -4.46939,1.57099 -6.93878,2.13217 -2.46938,0.56118 -4.85755,1.30867 -5.30702,1.66109 -1.63031,1.27827 -18.98007,4.19379 -27.34604,4.59536 -21.14827,1.01512 -37.58705,-8.42576 -47.1689,-27.08935 -2.79267,-5.43957 -6.26397,-20.43734 -5.65202,-24.41953 1.31693,-8.56966 8.37699,-37.00142 9.54204,-38.42699 0.36865,-0.45109 1.10883,-2.47322 1.64484,-4.49363 0.53602,-2.02041 1.85765,-5.61293 2.93696,-7.98338 1.07931,-2.37044 1.96239,-4.50977 1.96239,-4.75406 0,-0.90928 10.07396,-21.27941 13.66079,-27.62291 9.46778,-16.74426 26.75757,-40.89087 35.68085,-49.83123 6.20538,-6.21725 16.73731,-15.01312 20.04611,-16.74175 1.12245,-0.5864 2.22449,-1.3292 2.44898,-1.65065 0.77561,-1.1106 16.46351,-9.43562 21.63266,-11.47968 2.24489,-0.88771 4.81632,-1.96933 5.71428,-2.40359 3.68194,-1.78062 14.86313,-4.9845 21.89066,-6.27259 9.28658,-1.70215 34.29242,-1.9158 42.19097,-0.36047 28.29023,5.57071 56.90086,25.88556 85.30867,60.57302 1.87395,2.28819 14.96916,19.88805 16.76313,22.52952 3.35877,4.94549 9.68066,14.47923 13.45014,20.28348 2.33265,3.59184 5.94755,9.15145 8.0331,12.35468 2.08554,3.20324 3.7919,6.02873 3.7919,6.27888 0,0.25015 2.054,4.77657 4.56444,10.05873 5.9539,12.52743 8.10036,18.28189 11.06906,29.67506 5.42903,20.83543 2.46454,37.85561 -8.51774,48.90309 -9.53074,9.58735 -19.5434,13.3715 -36.09535,13.64175 -9.41606,0.15375 -11.48638,-0.077 -18.36735,-2.04713 z"
       id="path1385" />
    <path
       style="display:inline;fill:#00cdc7;fill-opacity:1;stroke:#006663;stroke-width:0.816327"
       d="m 462.44898,365.19005 c -0.89796,-0.23262 -4.50159,-1.55084 -8.00806,-2.92937 -5.03733,-1.98038 -7.61218,-3.66145 -12.26811,-8.00957 -5.66406,-5.2896 -11.11419,-13.13273 -13.5902,-19.55723 -0.60562,-1.57143 -1.36689,-3.22449 -1.6917,-3.67347 -0.32481,-0.44898 -1.1549,-3.57143 -1.84464,-6.93878 -3.59243,-17.53835 -3.50989,-14.92819 -1.05828,-33.46939 2.1926,-16.58231 9.25661,-35.66434 17.98074,-48.57142 8.7953,-13.01239 22.48372,-25.32296 34.76596,-31.26648 15.24996,-7.37963 29.0722,-9.03298 39.59184,-4.73578 12.12996,4.95501 20.17105,12.66992 26.5188,25.44308 5.69491,11.45951 6.89558,17.30706 6.86123,33.41632 -0.0437,20.55086 -2.65063,31.85962 -11.57278,50.20408 -5.44127,11.18756 -11.27639,19.42829 -19.68938,27.8066 -10.70645,10.6623 -18.11468,15.31378 -31.50562,19.78173 -5.67959,1.89502 -9.10692,2.50481 -15.10205,2.68698 -4.2653,0.12961 -8.48979,0.0453 -9.38775,-0.1873 z"
       id="path1424" />
    <path
       style="fill:#00cdc7;fill-opacity:1;stroke:#006663;stroke-width:0.816327"
       d="m 362.0349,237.78336 c -8.50098,-2.95632 -13.12711,-5.74054 -19.60183,-11.79733 -6.45277,-6.03624 -9.91538,-10.66486 -13.86371,-18.53217 -6.81553,-13.58041 -9.38819,-25.33646 -9.38087,-42.86691 0.018,-43.13423 19.42847,-81.240877 48.86964,-95.940943 10.86609,-5.425474 16.50387,-6.900205 24.28082,-6.351378 23.35928,1.648488 42.03801,19.156507 50.24209,47.093131 2.00634,6.83197 3.44801,26.99678 2.79613,39.10951 -1.46168,27.1593 -11.76195,51.7478 -29.38165,70.13889 -6.87686,7.17793 -14.44757,12.58089 -23.87607,17.03953 -7.51311,3.55287 -8.54407,3.81993 -15.79292,4.09091 -6.82193,0.25502 -8.54164,0.0164 -14.29163,-1.98324 z"
       id="path1611" />
    <path
       style="fill:#00cdc7;fill-opacity:1;stroke:#006663;stroke-width:0.816327"
       d="m 226.37009,239.60956 c -15.85938,-4.43558 -34.27923,-18.03853 -44.8682,-33.13492 -16.26336,-23.18621 -24.46112,-57.98441 -20.27555,-86.06648 3.42074,-22.950557 12.80279,-38.869377 29.12654,-49.419925 9.54878,-6.171675 22.38612,-8.19403 33.55203,-5.285681 6.13647,1.598348 16.09578,6.660562 22.34062,11.355503 7.09456,5.333777 17.43169,16.518171 21.91477,23.710993 8.68207,13.9298 16.05821,35.2303 17.52129,50.59722 1.92,20.16586 0.81594,35.06011 -3.55407,47.94637 -6.87109,20.26134 -20.06094,34.59991 -36.18179,39.33289 -6.59274,1.93558 -14.67816,2.33376 -19.57564,0.96403 z"
       id="path1650" />
    <path
       style="fill:#00cdc7;fill-opacity:1;stroke:#006663;stroke-width:0.816327"
       d="m 132.4069,371.45826 c -3.27824,-0.88548 -9.07042,-2.87789 -12.8715,-4.42758 -23.084389,-9.41141 -43.75483,-32.43213 -53.223888,-59.27558 -4.441488,-12.59099 -5.472744,-19.29216 -5.464738,-35.5102 0.0081,-16.4519 1.448078,-24.55525 6.092848,-34.28749 2.996048,-6.27765 11.708834,-14.79875 18.783038,-18.3698 5.236552,-2.6434 16.55825,-5.69495 21.16396,-5.70434 4.51956,-0.009 13.02261,2.392 20.12006,5.6818 30.00712,13.90886 52.5384,45.35284 57.92836,80.84309 1.86496,12.27982 1.27294,24.89719 -1.7046,36.32871 -6.36485,24.43631 -29.75114,40.41324 -50.82354,34.72139 z"
       id="path1689" />
    <path
       style="fill:#00cdc7;fill-opacity:1;stroke:#006663;stroke-width:0.816378;stroke-miterlimit:4;stroke-dasharray:none"
       d="m 416.37985,532.22964 c -6.3017,-1.33585 -16.22818,-4.8666 -35.56352,-12.6496 -23.53859,-9.47491 -31.56726,-12.03106 -44.89796,-14.29451 -12.22165,-2.07514 -19.13164,-1.90499 -36.56288,0.90028 -11.78725,1.89697 -23.75548,5.44075 -45.06978,13.34508 -17.9503,6.65682 -26.0636,9.12454 -35.10204,10.67654 -24.88562,4.27314 -38.92153,1.0636 -51.93586,-11.87599 -8.53781,-8.48878 -12.87455,-17.92075 -15.00621,-32.63697 -0.55068,-3.80167 1.4297,-14.30492 5.84512,-31.00059 6.09705,-23.05422 17.81115,-48.29436 33.4942,-72.16928 21.82057,-33.2183 37.43909,-48.03918 64.23962,-60.9589 20.27747,-9.77515 31.86096,-12.34428 55.56788,-12.32456 14.74006,0.0123 17.14182,0.21434 24.16591,2.03333 23.45725,6.07459 48.03351,23.06987 71.64069,49.54186 17.70182,19.84999 46.393,62.45384 55.20014,81.96731 9.39827,20.82319 12.70688,33.12296 12.70688,47.23786 0,13.3141 -3.3438,22.13629 -11.35916,29.96962 -5.27496,5.15517 -12.3603,9.19965 -19.26882,10.99909 -5.85183,1.52421 -23.15065,2.28738 -28.09421,1.23943 z"
       id="path1728" />
  </g>
</svg>
