<?xml version="1.0" encoding="UTF-8" standalone="no"?>
<svg
   width="32"
   height="32"
   viewBox="0 0 32 32"
   version="1.1"
   id="svg69"
   sodipodi:docname="icon-previous-item-active.svg"
   inkscape:version="1.1.2 (0a00cf5339, 2022-02-04)"
   xmlns:inkscape="http://www.inkscape.org/namespaces/inkscape"
   xmlns:sodipodi="http://sodipodi.sourceforge.net/DTD/sodipodi-0.dtd"
   xmlns="http://www.w3.org/2000/svg"
   xmlns:svg="http://www.w3.org/2000/svg">
  <sodipodi:namedview
     id="namedview71"
     pagecolor="#ffffff"
     bordercolor="#666666"
     borderopacity="1.0"
     inkscape:pageshadow="2"
     inkscape:pageopacity="0.0"
     inkscape:pagecheckerboard="0"
     showgrid="false"
     inkscape:zoom="9.8125"
     inkscape:cx="-4.2802548"
     inkscape:cy="29.605096"
     inkscape:window-width="1916"
     inkscape:window-height="958"
     inkscape:window-x="0"
     inkscape:window-y="1176"
     inkscape:window-maximized="1"
     inkscape:current-layer="svg69" />
  <defs
     id="defs59">
    <linearGradient
       id="linearGradient6555"
       inkscape:swatch="solid">
      <stop
         style="stop-color:#000000;stop-opacity:1;"
         offset="0"
         id="stop6553" />
    </linearGradient>
    <linearGradient
       id="linearGradient2708"
       inkscape:swatch="solid">
      <stop
         style="stop-color:#000000;stop-opacity:1;"
         offset="0"
         id="stop2706" />
    </linearGradient>
    <style
       id="style57">.a{fill:#fff;stroke:#fff;}.b{stroke:none;}.c{fill:none;}</style>
    <style
       id="style281">.a{fill:#fff;stroke:#fff;}.b{stroke:none;}.c{fill:none;}</style>
  </defs>
  <path
     id="circle61"
     class="b"
     style="opacity:1;fill:#1aae48;fill-opacity:1;stroke:#16943d;stroke-width:1.5;stroke-miterlimit:4;stroke-dasharray:none;stroke-opacity:1"
     d="m 16.052155,31.088831 c -1.366265,0 -2.690136,-0.181435 -3.948812,-0.521517 C 5.681652,28.832241 0.95693015,22.967646 0.95693023,16 c 3e-8,-2.052478 0.40997837,-4.009239 1.15254277,-5.792927 2.272346,-5.4583233 7.6591665,-9.2959043 13.942682,-9.2959043 8.336862,0 15.095224,6.7555 15.095224,15.0888313 0,8.333332 -6.758362,15.088831 -15.095224,15.088831 z"
     sodipodi:nodetypes="sssssss" />
  <path
     id="circle63"
     class="c"
     style="fill:none"
     d="M 16,0.4999997 A 15.5,15.5 0 0 0 0.5,16 15.5,15.5 0 0 0 16,31.5 15.5,15.5 0 0 0 31.5,16 15.5,15.5 0 0 0 16,0.4999997 Z" />
  <path
     d="M 23.814,18.594 21.978,20.428 16,14.472 l -5.977,5.956 -1.836,-1.834 7.814,-7.8 z"
     id="path67"
     style="mix-blend-mode:normal;fill-rule:evenodd;stroke:#16943d;stroke-opacity:1;fill:#16943d;fill-opacity:1" />
</svg>
