<?xml version="1.0" encoding="UTF-8" standalone="no"?>
<svg
   width="32"
   height="32"
   viewBox="0 0 32 32"
   version="1.1"
   id="svg4"
   sodipodi:docname="icon-next-day-active.svg"
   inkscape:version="1.1.2 (0a00cf5339, 2022-02-04)"
   xmlns:inkscape="http://www.inkscape.org/namespaces/inkscape"
   xmlns:sodipodi="http://sodipodi.sourceforge.net/DTD/sodipodi-0.dtd"
   xmlns="http://www.w3.org/2000/svg"
   xmlns:svg="http://www.w3.org/2000/svg">
  <defs
     id="defs8">
    <marker
       style="overflow:visible"
       id="Arrow1Lstart"
       refX="0.0"
       refY="0.0"
       orient="auto"
       inkscape:stockid="Arrow1Lstart"
       inkscape:isstock="true">
      <path
         transform="scale(0.8) translate(12.5,0)"
         style="fill-rule:evenodd;fill:context-stroke;stroke:context-stroke;stroke-width:1.0pt"
         d="M 0.0,0.0 L 5.0,-5.0 L -12.5,0.0 L 5.0,5.0 L 0.0,0.0 z "
         id="path825" />
    </marker>
  </defs>
  <sodipodi:namedview
     id="namedview6"
     pagecolor="#ffffff"
     bordercolor="#666666"
     borderopacity="1.0"
     inkscape:pageshadow="2"
     inkscape:pageopacity="0.0"
     inkscape:pagecheckerboard="0"
     showgrid="false"
     inkscape:zoom="9.5569901"
     inkscape:cx="13.916515"
     inkscape:cy="15.015188"
     inkscape:window-width="1916"
     inkscape:window-height="934"
     inkscape:window-x="0"
     inkscape:window-y="120"
     inkscape:window-maximized="1"
     inkscape:current-layer="svg4"
     inkscape:lockguides="true" />
  <path
     d="m 16.043535,31.353857 c 4.070119,0.01072 7.975487,-1.601332 10.846069,-4.477029 2.885437,-2.860892 4.50295,-6.753077 4.492193,-10.809458 C 31.392301,12.010851 29.774434,8.1186466 26.888645,5.2579117 24.018297,2.38245 20.113322,0.77041574 16.043535,0.78088156 11.973277,0.77041331 8.0678913,2.3828192 5.1974673,5.2588671 2.3122673,8.1195265 0.69477334,12.01132 0.70527434,16.06737 c -0.01076,4.056381 1.60675596,7.948565 4.49219296,10.809458 2.870582,2.875697 6.7759487,4.48775 10.8460677,4.477029 z M 13.497384,8.4241255 v 0 l 7.658585,7.6432445 -7.658585,7.643243 -1.799371,-1.796162 5.847713,-5.847081 -5.847713,-5.847082 1.313767,-1.3114246 z"
     id="path2"
     style="fill:#00cdc7;fill-opacity:1;stroke:#006663;stroke-width:1.487;stroke-miterlimit:4;stroke-dasharray:none;stroke-opacity:1"
     sodipodi:nodetypes="cccccccccccccccccc" />
</svg>
